# xmcd
#
# Track frame offsets: 
#        150
#        18442
#        35315
#        50110
#        65542
#        82075
#        100082
#        113660
#        130547
#        147285
#
# Disc length: 2153 seconds
#
# Revision: 2
# Processed by: cddbd v1.5.2PL0 Copyright (c) Steve Scherf et al.
# Submitted via: ExactAudioCopy v0.99pb5
#
DISCID=8208670a
DTITLE=Shenandoah - The Road Not Taken
DYEAR=1989
DGENRE=
TTITLE0=Sunday in the South
TTITLE1=Two Dozen Roses
TTITLE2=See if I Care
TTITLE3=Mama Knows
TTITLE4=She Doesn't Cry Anymore
TTITLE5=The Road Not Taken
TTITLE6=The Church on Cumberland Road
TTITLE7=Changes
TTITLE8=She's All I've Got Going
TTITLE9=Hard Country
EXTD=
EXTT0=
EXTT1=
EXTT2=
EXTT3=
EXTT4=
EXTT5=
EXTT6=
EXTT7=
EXTT8=
EXTT9=
PLAYORDER=
